<?xml version="1.0" encoding="utf-8"?>
<!-- Generator: Adobe Illustrator 24.2.1, SVG Export Plug-In . SVG Version: 6.00 Build 0)  -->
<svg version="1.1" id="Layer_1" xmlns="http://www.w3.org/2000/svg" xmlns:xlink="http://www.w3.org/1999/xlink" x="0px" y="0px"
	 viewBox="0 0 412.89 668.55" style="enable-background:new 0 0 412.89 668.55;" xml:space="preserve">
<style type="text/css">
	.st0{fill:#F5F5F5;}
</style>
<rect x="-0.36" y="-7.01" class="st0" width="413.83" height="676.88"/>
<g>
	<path d="M27.75,70.06h10.94l-5.42-9.56l5.61-3.31l5.42,9.65l5.52-9.65l5.52,3.31l-5.52,9.56h11.03v6.44H49.81l5.52,9.65l-5.61,3.22
		L44.3,79.9l-5.42,9.47l-5.61-3.22l5.52-9.65H27.75V70.06z"/>
</g>
<g>
	<path d="M362.71,204.45c-6.31-0.67-11.02-2.82-14.11-6.44c-3.1-3.62-4.86-8.86-5.29-15.73h11.77c0.24,3.53,0.95,6.22,2.12,8.08
		c1.16,1.86,3,3.12,5.52,3.79v-19.26c-2.33-0.61-4.6-1.35-6.8-2.21c-2.21-0.86-4.17-1.98-5.88-3.36c-1.72-1.38-3.11-3.08-4.18-5.11
		c-1.07-2.03-1.61-4.54-1.61-7.55c0-2.27,0.38-4.4,1.15-6.4c0.77-1.99,1.91-3.76,3.45-5.29c1.53-1.53,3.45-2.82,5.75-3.87
		c2.3-1.04,5.01-1.75,8.14-2.12v-8.64h9.75v8.64c6.13,0.68,10.67,2.7,13.61,6.07c2.94,3.37,4.63,8.13,5.06,14.26h-11.77
		c-0.31-2.92-0.97-5.19-1.98-6.8c-1.01-1.61-2.65-2.69-4.92-3.24v17.52c2.39,0.68,4.75,1.43,7.08,2.26
		c2.33,0.83,4.41,1.96,6.25,3.41c1.84,1.44,3.34,3.24,4.51,5.38c1.16,2.15,1.75,4.85,1.75,8.1c0,5.03-1.6,9.21-4.78,12.52
		c-3.19,3.31-8.12,5.31-14.8,5.98v8.64h-9.75V204.45z M355.81,156.75c0,1.95,0.64,3.46,1.93,4.56c1.29,1.09,2.94,2,4.96,2.73v-14.76
		c-2.39,0.55-4.14,1.49-5.24,2.83C356.36,153.44,355.81,154.99,355.81,156.75z M380.45,185.76c0-2.13-0.75-3.8-2.25-5.01
		c-1.5-1.22-3.42-2.25-5.75-3.1v16.59c2.76-0.61,4.78-1.66,6.07-3.14S380.45,187.83,380.45,185.76z"/>
</g>
<g>
	<path d="M70.55,301.87c-2.45,1.96-5.15,3.46-8.09,4.5c-2.94,1.04-6.1,1.56-9.47,1.56c-3.25,0-6.15-0.45-8.69-1.33
		c-2.54-0.89-4.7-2.13-6.48-3.72c-1.78-1.59-3.14-3.48-4.09-5.66c-0.95-2.17-1.43-4.55-1.43-7.12c0-1.41,0.14-2.82,0.41-4.23
		c0.28-1.41,0.81-2.85,1.61-4.32c0.8-1.47,1.87-2.97,3.22-4.51c1.35-1.53,3.13-3.16,5.33-4.87c-1.6-1.78-2.87-3.34-3.82-4.69
		c-0.95-1.35-1.69-2.6-2.21-3.77c-0.52-1.16-0.87-2.31-1.06-3.45c-0.18-1.13-0.28-2.37-0.28-3.72c0-2.08,0.38-4.01,1.15-5.79
		c0.77-1.78,1.87-3.32,3.31-4.64c1.44-1.32,3.19-2.34,5.24-3.08c2.05-0.74,4.34-1.1,6.85-1.1c2.57,0,4.89,0.37,6.94,1.1
		c2.05,0.74,3.78,1.76,5.19,3.08c1.41,1.32,2.5,2.87,3.26,4.64c0.77,1.78,1.15,3.71,1.15,5.79c0,1.23-0.14,2.47-0.41,3.72
		c-0.28,1.26-0.81,2.57-1.61,3.95c-0.8,1.38-1.92,2.82-3.36,4.32c-1.44,1.5-3.33,3.11-5.65,4.83l11.68,12.41
		c0.43-1.29,0.77-2.68,1.01-4.18c0.24-1.5,0.37-3.11,0.37-4.83H81.5c0,3.37-0.38,6.51-1.15,9.42c-0.77,2.91-1.85,5.56-3.26,7.95
		l12.23,12.96H75.52L70.55,301.87z M53.45,298.38c3.68,0,7.08-1.32,10.21-3.95l-14.25-15.26c-1.41,1.16-2.53,2.22-3.36,3.17
		c-0.83,0.95-1.46,1.85-1.88,2.71c-0.43,0.86-0.71,1.7-0.83,2.53c-0.12,0.83-0.18,1.67-0.18,2.53c0,2.21,0.9,4.14,2.71,5.79
		C47.67,297.55,50.2,298.38,53.45,298.38z M46.37,256.54c0,0.8,0.05,1.53,0.14,2.21c0.09,0.68,0.31,1.38,0.64,2.12
		c0.34,0.74,0.81,1.53,1.43,2.39c0.61,0.86,1.44,1.87,2.48,3.03c1.59-1.16,2.83-2.21,3.72-3.13c0.89-0.92,1.56-1.75,2.02-2.48
		c0.46-0.74,0.74-1.44,0.83-2.12c0.09-0.67,0.14-1.35,0.14-2.02c0-1.41-0.51-2.61-1.52-3.59c-1.01-0.98-2.41-1.47-4.18-1.47
		c-1.78,0-3.17,0.49-4.18,1.47C46.88,253.94,46.37,255.13,46.37,256.54z"/>
</g>
<g>
	<path d="M371.11,335.65l-10.3,19.03h-10.85l15.72-27.58h10.85l16.64,27.58h-11.13L371.11,335.65z"/>
</g>
<g>
	<path d="M369.32,632.95c-2.15,0-3.91-0.72-5.29-2.16c-1.38-1.44-2.07-3.17-2.07-5.19s0.69-3.75,2.07-5.2
		c1.38-1.44,3.14-2.16,5.29-2.16c2.14,0,3.91,0.72,5.29,2.16c1.38,1.44,2.07,3.17,2.07,5.2s-0.69,3.75-2.07,5.19
		C373.23,632.23,371.47,632.95,369.32,632.95z M363.81,567.76h11.03v45.97h-11.03V567.76z"/>
</g>
<g>
	<path d="M35.24,503.22h8.27v-11.59c0-2.82,0.47-5.39,1.43-7.72c0.95-2.33,2.3-4.35,4.05-6.07c1.75-1.71,3.83-3.05,6.25-4
		c2.42-0.95,5.1-1.43,8.04-1.43c6.13,0,10.91,1.81,14.34,5.42c3.43,3.62,5.24,8.67,5.42,15.17H71.46c-0.18-3.68-0.95-6.31-2.3-7.91
		c-1.35-1.59-3.31-2.39-5.88-2.39c-2.64,0-4.75,0.8-6.34,2.39c-1.6,1.59-2.39,3.77-2.39,6.53v11.59h16.09v8.09H54.54v1.65
		c0,3.8-0.38,6.84-1.15,9.1c-0.77,2.27-2.01,4.2-3.72,5.79h33.38v9.75H35.24v-9.75c1.35-0.74,2.53-1.52,3.54-2.34
		c1.01-0.83,1.87-1.79,2.57-2.9c0.7-1.1,1.24-2.44,1.61-4c0.37-1.56,0.55-3.45,0.55-5.65v-1.65h-8.27V503.22z"/>
</g>
</svg>
