<svg width="151" height="147" viewBox="0 0 151 147" fill="none" xmlns="http://www.w3.org/2000/svg">
<path d="M45.7328 97.555L37.1676 85.1881L68.5589 63.4833L107.795 36.1332L116.253 48.5143L45.7328 97.555Z" fill="#07060E"/>
<path d="M23.6813 38.4636L77.8156 56.9931L57.2921 71.2267L51.6852 63.7366L17.9093 42.5182L23.6813 38.4636Z" fill="#07060E"/>
<path d="M84.6243 126.658L86.3663 69.2522L65.7504 83.6077L70.8657 91.4919L78.8523 130.712L84.6243 126.658Z" fill="#07060E"/>
<path d="M113.368 50.5416C105.619 55.2962 96.8248 57.9941 94.5016 54.5697C92.1784 51.1454 97.7369 43.9365 104.817 38.2824C111.897 32.6284 119.272 32.3128 121.595 35.7372C124.011 39.0396 121.316 45.6508 113.368 50.5416Z" fill="#07060E"/>
<path d="M41.3542 83.0987L20.133 77.8904L15.052 81.4148L35.9387 95.3368L41.9924 120.436L47.273 116.776L49.3581 94.5521L41.3542 83.0987Z" fill="#07060E"/>
<rect x="56" y="57" width="29" height="24" rx="11" fill="#07060E"/>
</svg>
