<?xml version="1.0" encoding="utf-8"?>
<!-- Generator: Adobe Illustrator 22.1.0, SVG Export Plug-In . SVG Version: 6.00 Build 0)  -->
<svg version="1.1" id="Слой_1" xmlns="http://www.w3.org/2000/svg" xmlns:xlink="http://www.w3.org/1999/xlink" x="0px" y="0px"
	 viewBox="0 0 506 309" style="enable-background:new 0 0 506 309;" xml:space="preserve">
<style type="text/css">
	.st0{fill:none;stroke:#FF4343;stroke-width:6;stroke-miterlimit:10;}
	.st1{clip-path:url(#SVGID_2_);}
	.st2{fill:none;stroke:#FF4343;stroke-miterlimit:10;stroke-dasharray:6.0291,6.0291;}
	.st3{clip-path:url(#SVGID_2_);fill:none;stroke:#FF4343;stroke-miterlimit:10;}
	.st4{clip-path:url(#SVGID_4_);}
	.st5{fill:none;stroke:#FF4343;stroke-miterlimit:10;stroke-dasharray:6.0712,6.0712;}
	.st6{clip-path:url(#SVGID_6_);}
	.st7{fill:none;stroke:#FF4343;stroke-miterlimit:10;stroke-dasharray:6.0508,6.0508;}
	.st8{clip-path:url(#SVGID_8_);}
	.st9{fill:none;stroke:#FF4343;stroke-miterlimit:10;stroke-dasharray:5.9659,5.9659;}
	.st10{fill:none;stroke:#FF4343;stroke-miterlimit:10;}
	.st11{fill:none;stroke:#07060E;stroke-width:6;stroke-miterlimit:10;}
	.st12{fill:#07060E;}
	.st13{fill:none;stroke:#FFFFFF;stroke-miterlimit:10;}
	.st14{fill:#F5F5F5;}
	.st15{fill:none;stroke:#F5F5F5;stroke-miterlimit:10;}
	.st16{fill:#606060;stroke:#F5F5F5;stroke-miterlimit:10;}
	.st17{fill:#F5F5F5;stroke:#F5F5F5;stroke-width:0.6;stroke-miterlimit:10;}
	.st18{fill:none;}
	.st19{font-family:'PTRootUI-Bold';}
	.st20{font-size:8.4828px;}
</style>
<path class="st14" d="M355.3,278.3H153c-14.7,0-26.7-11.9-26.7-26.7v-194c0-14.7,11.9-26.7,26.7-26.7h202.3
	c14.7,0,26.7,11.9,26.7,26.7v194C382,266.4,370.1,278.3,355.3,278.3z"/>
<circle class="st12" cx="169.8" cy="139.9" r="26.2"/>
<circle class="st12" cx="338.1" cy="139.9" r="26.2"/>
<circle class="st12" cx="253.9" cy="142" r="21.2"/>
<circle class="st12" cx="169.8" cy="224.7" r="26.2"/>
<circle class="st12" cx="253.9" cy="225.4" r="21.2"/>
<rect x="135.9" y="176.6" class="st18" width="244.6" height="2.8"/>
<circle class="st14" cx="169.8" cy="226.1" r="11.3"/>
<circle class="st14" cx="169.8" cy="139.9" r="11.3"/>
<circle class="st14" cx="337.4" cy="139.2" r="11.3"/>
<circle class="st14" cx="253.9" cy="225.4" r="11.3"/>
<circle class="st14" cx="253.9" cy="142" r="11.3"/>
<rect x="168.3" y="125.7" class="st12" width="2.4" height="15.5"/>
<rect x="168.3" y="213.4" class="st12" width="2.4" height="14.1"/>
<rect x="210.8" y="100.3" class="st12" width="2.8" height="70.7"/>
<rect x="295.7" y="100.3" class="st12" width="2.8" height="70.7"/>
<rect x="212.2" y="185.1" class="st12" width="2.8" height="70.7"/>
<rect x="253.5" y="61.9" transform="matrix(6.123234e-17 -1 1 6.123234e-17 75.5 434.3965)" class="st12" width="2.8" height="235.1"/>
<rect x="136.7" y="91.8" class="st12" width="236.3" height="2.8"/>
<path class="st12" d="M370.9,258.6v2.8H136.3c-1.3,0-1.3-1.4-1.3-2.8"/>
<rect x="297.1" y="185.1" class="st12" width="2.8" height="70.7"/>
<g>
	<text transform="matrix(1 0 0 1 163.1113 111.9395)" class="st12 st19 st20">PFD</text>
</g>
<g>
	<text transform="matrix(1 0 0 1 238.043 111.9395)" class="st12 st19 st20">PFD/ND</text>
</g>
<g>
	<text transform="matrix(1 0 0 1 332.7666 111.9395)" class="st12 st19 st20">ND</text>
</g>
<g>
	<text transform="matrix(1 0 0 1 136.6035 167.4307)" class="st12 st19 st20">OFF</text>
</g>
<g>
	<text transform="matrix(1 0 0 1 135.1895 252.2578)" class="st12 st19 st20">OFF</text>
</g>
<g>
	<text transform="matrix(1 0 0 1 279.3965 250.8447)" class="st12 st19 st20">OFF</text>
</g>
<g>
	<text transform="matrix(1 0 0 1 304.8457 166.0176)" class="st12 st19 st20">OFF</text>
</g>
<g>
	<text transform="matrix(1 0 0 1 190.3281 250.8447)" class="st12 st19 st20">MAX</text>
</g>
<g>
	<text transform="matrix(1 0 0 1 189.6201 166.7246)" class="st12 st19 st20">BRT</text>
</g>
<g>
	<text transform="matrix(1 0 0 1 357.8613 166.7246)" class="st12 st19 st20">BRT</text>
</g>
<g>
	<text transform="matrix(1 0 0 1 140.4902 195.3535)" class="st12 st19 st20">LOUD SPEAKER</text>
</g>
<g>
	<text transform="matrix(1 0 0 1 221.0771 195.3535)" class="st12 st19 st20">CONSOLE/FLOOR</text>
</g>
<g>
	<text transform="matrix(1 0 0 1 278.6895 210.9053)" class="st12 st19 st20">BRT</text>
</g>
<g>
	<text transform="matrix(1 0 0 1 278.3359 230.3447)" class="st12 st19 st20">DIM</text>
</g>
<path class="st11" d="M355.7,279H152.7c-14.7,0-26.7-11.9-26.7-26.7V57.7c0-14.7,11.9-26.7,26.7-26.7h203.1
	c14.7,0,26.7,11.9,26.7,26.7v194.7C382.4,267.1,370.5,279,355.7,279z"/>
</svg>
