<?xml version="1.0" encoding="utf-8"?>
<!-- Generator: Adobe Illustrator 22.1.0, SVG Export Plug-In . SVG Version: 6.00 Build 0)  -->
<svg version="1.1" id="Слой_1" xmlns="http://www.w3.org/2000/svg" xmlns:xlink="http://www.w3.org/1999/xlink" x="0px" y="0px"
	 viewBox="0 0 506 309" style="enable-background:new 0 0 506 309;" xml:space="preserve">
<style type="text/css">
	.st0{fill:#F5F5F5;}
	.st1{clip-path:url(#SVGID_2_);}
	.st2{fill:none;stroke:#FF4343;stroke-miterlimit:10;stroke-dasharray:6.0291,6.0291;}
	.st3{clip-path:url(#SVGID_2_);fill:none;stroke:#07060E;stroke-width:2;stroke-miterlimit:10;}
	.st4{clip-path:url(#SVGID_4_);}
	.st5{fill:none;stroke:#07060E;stroke-width:2;stroke-miterlimit:10;}
	.st6{fill:none;stroke:#07060E;stroke-width:2;stroke-miterlimit:10;stroke-dasharray:5.8198,5.8198;}
	.st7{clip-path:url(#SVGID_6_);}
	.st8{fill:none;stroke:#07060E;stroke-miterlimit:10;}
	.st9{fill:none;stroke:#07060E;stroke-miterlimit:10;stroke-dasharray:5.9076,5.9076;}
	.st10{fill:none;stroke:#07060E;stroke-width:2;stroke-miterlimit:10;stroke-dasharray:6.101,6.101;}
	.st11{clip-path:url(#SVGID_8_);}
	.st12{fill:none;stroke:#07060E;stroke-width:2;stroke-miterlimit:10;stroke-dasharray:6.0042,6.0042;}
	.st13{fill:none;stroke:#F5F5F5;stroke-width:6;stroke-miterlimit:10;}
	.st14{fill:#FFFFFF;}
	.st15{font-family:'PTRootUI-Bold';}
	.st16{font-size:8px;}
	.st17{fill:#07060E;}
	.st18{font-size:14px;}
	.st19{fill:none;stroke:#07060E;stroke-width:6;stroke-miterlimit:10;}
	.st20{fill:none;stroke:#FFFFFF;stroke-miterlimit:10;}
	.st21{fill:none;stroke:#F5F5F5;stroke-miterlimit:10;}
	.st22{fill:#606060;stroke:#F5F5F5;stroke-miterlimit:10;}
	.st23{fill:#F5F5F5;stroke:#F5F5F5;stroke-width:0.6;stroke-miterlimit:10;}
	.st24{fill:none;}
</style>
<path class="st0" d="M349.3,271.7H159c-14.7,0-26.7-11.9-26.7-26.7V62.7c0-14.7,11.9-26.7,26.7-26.7h190.3
	c14.7,0,26.7,11.9,26.7,26.7V245C376,259.7,364.1,271.7,349.3,271.7z"/>
<g>
	<defs>
		<rect id="SVGID_1_" x="110.5" y="46" width="283" height="77.5"/>
	</defs>
	<clipPath id="SVGID_2_">
		<use xlink:href="#SVGID_1_"  style="overflow:visible;"/>
	</clipPath>
	<g class="st1">
		<ellipse class="st2" cx="498.5" cy="189.5" rx="110" ry="101"/>
	</g>
	<path class="st3" d="M141.3,123.5c23.4-25.7,61.7-42.9,105.4-43.9c45.4-1,85.8,15.7,110.1,42.1"/>
</g>
<g>
	<defs>
		<polyline id="SVGID_3_" points="177.8,206.5 348.2,206.5 348.2,154 156.5,154 156.5,206.5 177.8,206.5 		"/>
	</defs>
	<clipPath id="SVGID_4_">
		<use xlink:href="#SVGID_3_"  style="overflow:visible;"/>
	</clipPath>
	<g class="st4">
		<g>
			<path class="st5" d="M177.8,206.5c0.3-1,0.6-1.9,0.9-2.9"/>
			<path class="st6" d="M180.7,198.2c10.9-25.3,37.8-43.2,69.3-43.2c31.1,0,57.7,17.5,68.9,42.3"/>
			<path class="st5" d="M320,200c0.4,0.9,0.7,1.9,1,2.8"/>
		</g>
	</g>
</g>
<g>
	<defs>
		<rect id="SVGID_5_" x="126.5" y="114" width="249.5" height="68.3"/>
	</defs>
	<clipPath id="SVGID_6_">
		<use xlink:href="#SVGID_5_"  style="overflow:visible;"/>
	</clipPath>
	<g class="st7">
		<g>
			<path class="st8" d="M361.1,220.6c0,1,0,2,0,3"/>
			<path class="st9" d="M360.7,229.5c-4.9,53.2-52.9,94.9-111.4,94.9c-61.8,0-111.8-46.5-111.8-103.8c0-11.4,2-22.4,5.7-32.7"/>
			<path class="st8" d="M144.2,185.1c0.4-0.9,0.7-1.9,1.1-2.8"/>
		</g>
	</g>
	<g class="st7">
		<g>
			<path class="st5" d="M145.3,182.3c0.4-0.9,0.8-1.8,1.2-2.7"/>
			<path class="st10" d="M149.3,174.1c18.4-34,56.3-57.3,100-57.3c43.4,0,81,23,99.6,56.5"/>
			<path class="st5" d="M350.3,176c0.5,0.9,0.9,1.8,1.3,2.7"/>
		</g>
	</g>
</g>
<g>
	<defs>
		<rect id="SVGID_7_" x="202.5" y="192" width="96.8" height="26.5"/>
	</defs>
	<clipPath id="SVGID_8_">
		<use xlink:href="#SVGID_7_"  style="overflow:visible;"/>
	</clipPath>
	<g class="st11">
		<g>
			<path class="st5" d="M213.2,218.5c0.3-1,0.6-1.9,0.9-2.8"/>
			<path class="st12" d="M216.8,210.3c6.4-10.6,18.7-17.8,32.9-17.8c15.3,0,28.4,8.4,34.3,20.4"/>
			<path class="st5" d="M285.2,215.7c0.4,0.9,0.7,1.9,0.9,2.8"/>
		</g>
	</g>
</g>
<path class="st13" d="M349.3,273H158.7c-14.7,0-26.7-11.9-26.7-26.7V63.7c0-14.7,11.9-26.7,26.7-26.7h190.7
	c14.7,0,26.7,11.9,26.7,26.7v182.7C376,261.1,364.1,273,349.3,273z"/>
<circle class="st5" cx="249" cy="229" r="5"/>
<text transform="matrix(0.4067 -0.9136 0.9136 0.4067 151.2642 193.8448)" class="st14 st15 st16">7.5</text>
<g>
	<text transform="matrix(0.2079 0.9782 -0.9782 0.2079 343.7968 181.6016)" class="st14 st15 st16">7.5</text>
</g>
<text transform="matrix(1 0 0 1 238 115.333)" class="st17 st15 st18">HDG</text>
<text transform="matrix(1 0 0 1 201 136.333)" class="st17 st15 st18">MAP TON AVAIL</text>
</svg>
