<?xml version="1.0" encoding="utf-8"?>
<!-- Generator: Adobe Illustrator 22.1.0, SVG Export Plug-In . SVG Version: 6.00 Build 0)  -->
<svg version="1.1" id="Слой_1" xmlns="http://www.w3.org/2000/svg" xmlns:xlink="http://www.w3.org/1999/xlink" x="0px" y="0px"
	 viewBox="0 0 506 309" style="enable-background:new 0 0 506 309;" xml:space="preserve">
<style type="text/css">
	.st0{fill:none;stroke:#FF4343;stroke-width:6;stroke-miterlimit:10;}
	.st1{clip-path:url(#SVGID_2_);}
	.st2{fill:none;stroke:#FF4343;stroke-miterlimit:10;stroke-dasharray:6.0291,6.0291;}
	.st3{clip-path:url(#SVGID_2_);fill:none;stroke:#FF4343;stroke-miterlimit:10;}
	.st4{clip-path:url(#SVGID_4_);}
	.st5{fill:none;stroke:#FF4343;stroke-miterlimit:10;stroke-dasharray:6.0712,6.0712;}
	.st6{clip-path:url(#SVGID_6_);}
	.st7{fill:none;stroke:#FF4343;stroke-miterlimit:10;stroke-dasharray:6.0508,6.0508;}
	.st8{clip-path:url(#SVGID_8_);}
	.st9{fill:none;stroke:#FF4343;stroke-miterlimit:10;stroke-dasharray:5.9659,5.9659;}
	.st10{fill:none;stroke:#FF4343;stroke-miterlimit:10;}
	.st11{fill:#F5F5F5;}
	.st12{fill:#FFFFFF;}
	.st13{font-family:'PTRootUI-Bold';}
	.st14{font-size:8px;}
	.st15{fill:none;stroke:#07060E;stroke-width:6;stroke-miterlimit:10;}
	.st16{fill:#07060E;}
	.st17{fill:none;stroke:#FFFFFF;stroke-miterlimit:10;}
	.st18{font-size:12px;}
	.st19{fill:none;stroke:#F5F5F5;stroke-miterlimit:10;}
	.st20{fill:#606060;stroke:#F5F5F5;stroke-miterlimit:10;}
	.st21{fill:#F5F5F5;stroke:#F5F5F5;stroke-width:0.6;stroke-miterlimit:10;}
	.st22{fill:none;}
	.st23{fill:#FF4343;}
</style>
<g>
	<defs>
		<rect id="SVGID_1_" x="-421.5" y="46" width="283" height="77.5"/>
	</defs>
	<clipPath id="SVGID_2_">
		<use xlink:href="#SVGID_1_"  style="overflow:visible;"/>
	</clipPath>
	<g class="st1">
		<ellipse class="st2" cx="-33.5" cy="189.5" rx="110" ry="101"/>
	</g>
</g>
<path class="st11" d="M321.3,259.7H151.7c-14.7,0-26.7-11.9-26.7-26.7V70.7c0-14.7,11.9-26.7,26.7-26.7h169.7
	c14.7,0,26.7,11.9,26.7,26.7V233C348,247.7,336.1,259.7,321.3,259.7z"/>
<text transform="matrix(0.4067 -0.9136 0.9136 0.4067 151.2642 193.8448)" class="st12 st13 st14">7.5</text>
<g>
	<text transform="matrix(0.2079 0.9782 -0.9782 0.2079 343.7968 181.6016)" class="st12 st13 st14">7.5</text>
</g>
<path class="st15" d="M322.3,261.6H149.7c-14.7,0-26.7-11.9-26.7-26.7V69.7c0-14.7,11.9-26.7,26.7-26.7h172.7
	c14.7,0,26.7,11.9,26.7,26.7v165.3C349,249.7,337.1,261.6,322.3,261.6z"/>
<path class="st16" d="M285,122h-98.6c-1.9,0-3.4,1.5-3.4,3.4V153h106v-27C289,123.8,287.2,122,285,122z"/>
<path class="st16" d="M289,178.5c0,14.5-24,35.5-53,34.5c-28.1-1-44-14-52-28.5c-7-12.6,23.8-28.5,52-28.5S289,162.8,289,178.5z"/>
<g>
	<defs>
		<rect id="SVGID_9_" x="169.5" y="185.5" width="133" height="56"/>
	</defs>
	<clipPath id="SVGID_4_">
		<use xlink:href="#SVGID_9_"  style="overflow:visible;"/>
	</clipPath>
</g>
<polygon class="st16" points="183.8,238.2 288.9,237.5 289,252 289,253.9 183,253.9 "/>
<rect x="144" y="91" class="st16" width="23" height="126"/>
<rect x="300" y="91" class="st16" width="23" height="126"/>
<rect x="182.2" y="237" class="st11" width="1.6" height="16.9"/>
<rect x="235.5" y="183.5" transform="matrix(6.123234e-17 -1 1 6.123234e-17 -1 474)" class="st11" width="1.9" height="108"/>
<text transform="matrix(1 0 0 1 223.833 252.167)" class="st11 st13 st18">HDG</text>
<path class="st16" d="M283.9,183h-98.5c-1.3,0-2.4-1.1-2.4-2.4V153h106v24.9C289,180.7,286.7,183,283.9,183z"/>
<path class="st16" d="M289,126.5C289,112,264.2,92,236,92s-44,14-52,28.5c-7,12.6,23.8,28.5,52,28.5S289,142.2,289,126.5z"/>
<rect x="198.5" y="105.5" class="st19" width="76" height="0"/>
<rect x="231.5" y="113.5" class="st19" width="11" height="0"/>
<rect x="223.5" y="126.5" class="st19" width="26" height="0"/>
<g>
	<text transform="matrix(1 0 0 1 211.25 129.667)" class="st11 st13 st14">10</text>
</g>
<g>
	<text transform="matrix(1 0 0 1 255.25 129.667)" class="st11 st13 st14">10</text>
</g>
<polygon class="st19" points="240,120.5 234,120.5 234,120.5 240,120.5 "/>
<polygon class="st19" points="240,133.5 234,133.5 234,133.5 240,133.5 "/>
<polygon class="st19" points="240,146.5 234,146.5 234,146.5 240,146.5 "/>
<rect x="230" y="139" class="st11" width="13" height="2"/>
<polygon class="st11" points="185.5,151.5 207.5,151.5 207.5,161.5 203.5,161.5 203.5,155.5 185.5,155.5 "/>
<polygon class="st11" points="287.5,152.5 265.5,152.5 265.5,162.5 269.5,162.5 269.5,156.5 287.5,156.5 "/>
<rect x="234.5" y="151.5" class="st19" width="4" height="3.5"/>
<polygon class="st19" points="167,154 167,151 167,91 167,91 "/>
<g>
	<defs>
		<rect id="SVGID_11_" x="169.5" y="63.5" width="133" height="56"/>
	</defs>
	<clipPath id="SVGID_6_">
		<use xlink:href="#SVGID_11_"  style="overflow:visible;"/>
	</clipPath>
</g>
<line class="st20" x1="163" y1="123.5" x2="167" y2="123.5"/>
<line class="st19" x1="163.5" y1="108.5" x2="167" y2="108.5"/>
<line class="st19" x1="163" y1="138.5" x2="167" y2="138.5"/>
<line class="st19" x1="163" y1="93.5" x2="167" y2="93.5"/>
<text transform="matrix(1 0 0 1 144.25 111.625)" class="st11 st13 st14">060</text>
<text transform="matrix(1 0 0 1 159.25 88.625)" class="st11 st13 st14">100</text>
<text transform="matrix(1 0 0 1 311.25 88.625)" class="st11 st13 st14">2100</text>
<g>
	<text transform="matrix(1 0 0 1 305.25 105.625)" class="st11 st13 st14">005</text>
</g>
<g>
	<text transform="matrix(1 0 0 1 305.25 215.625)" class="st11 st13 st14">005</text>
</g>
<g>
	<text transform="matrix(1 0 0 1 144.25 140.625)" class="st11 st13 st14">060</text>
</g>
<rect x="139" y="152" class="st11" width="33" height="2"/>
<rect x="172" y="151" class="st11" width="2" height="4"/>
<rect x="142" y="89" class="st11" width="33" height="2"/>
<rect x="323" y="91" class="st19" width="0" height="57"/>
<line class="st19" x1="319" y1="125.5" x2="322.5" y2="125.5"/>
<line class="st19" x1="319.5" y1="108.5" x2="323.5" y2="108.5"/>
<line class="st19" x1="319" y1="114.5" x2="323" y2="114.5"/>
<line class="st19" x1="319.5" y1="136.5" x2="323" y2="136.5"/>
<line class="st19" x1="319" y1="93.5" x2="323" y2="93.5"/>
<rect x="299" y="89" class="st11" width="33" height="2"/>
<polyline class="st19" points="303,147.5 323,147.5 323.5,215.5 323.5,216.5 "/>
<polygon class="st19" points="332,216.5 303,216.5 303,216.5 332,216.5 "/>
<polygon class="st19" points="323,202.5 316,202.5 316,202.5 323,202.5 "/>
<polyline class="st19" points="319.5,191.5 322.5,191.5 323.3,191.5 "/>
<line class="st19" x1="320.5" y1="180.5" x2="323.2" y2="180.5"/>
<line class="st19" x1="320.5" y1="169.5" x2="323.2" y2="169.5"/>
<line class="st19" x1="302.5" y1="160.5" x2="322.5" y2="160.5"/>
<line class="st19" x1="207.5" y1="153" x2="234.5" y2="153.2"/>
<line class="st19" x1="238.5" y1="153" x2="265.5" y2="153.2"/>
<line class="st19" x1="313" y1="154" x2="323" y2="154"/>
<polyline class="st21" points="290.5,237.1 290.5,253.6 289,253.6 289,238 "/>
</svg>
